<svg width="41" height="39" viewBox="0 0 41 39" fill="none" xmlns="http://www.w3.org/2000/svg">
<path fill-rule="evenodd" clip-rule="evenodd" d="M15.7987 33.7854L17.8064 32.6625L17.6893 32.4687L17.6373 32.3833L17.5766 32.3021L17.44 32.1208L17.3836 32.0438L17.3207 31.9729L17.169 31.8021L17.1017 31.7271L17.0259 31.6604L16.8589 31.5042L16.7895 31.4417L16.7136 31.3833L16.5337 31.2437L16.4513 31.1812L16.3646 31.125L16.1694 31.0021L16.0827 30.9479L15.996 30.9042L15.79 30.8L15.7033 30.7563L15.6144 30.7188L15.3976 30.6333L15.3022 30.5937L15.2025 30.5646L14.9813 30.4979L14.8859 30.4687L14.7905 30.4479L14.5629 30.4021L14.4631 30.3812L14.3656 30.3708L14.1336 30.3458L14.0339 30.3333H13.9298L13.6978 30.3271L13.6002 30.325L13.5005 30.3312L13.2685 30.3458L13.1666 30.3521L13.0647 30.3687L12.8349 30.4042L12.7351 30.4208L12.6376 30.4438L12.4143 30.5L12.9238 32.3833L12.3904 30.5083L12.1302 30.575L11.9416 30.6125L11.7508 30.6354L11.5557 30.6479H11.3627L11.1698 30.6333L10.979 30.6062L10.7903 30.5688L10.6017 30.5167L10.4196 30.4521L10.244 30.3771L10.0705 30.2896L9.90358 30.1917L9.74531 30.0833L9.59354 29.9646L9.45261 29.8333L9.31819 29.6937L9.19461 29.5479L9.08186 29.3937L8.97996 29.2312L8.88673 29.0604L8.80868 28.8875L8.74364 28.7083L8.68943 28.5208L8.64607 28.3354L8.62005 28.1479L8.60488 27.9563V27.7646L8.61572 27.5729L8.64174 27.3854L8.68076 27.1979L8.75231 26.9437L6.61671 26.3937L8.75881 26.9208L8.81735 26.7021L8.8412 26.6104L8.85855 26.5167L8.89541 26.2937L8.91058 26.1979L8.91709 26.1021L8.93443 25.8771L8.94094 25.7833L8.93877 25.6896L8.93226 25.4646L8.9301 25.3687L8.91925 25.2729L8.89107 25.0479L8.88023 24.9542L8.85855 24.8625L8.81302 24.6417L8.79134 24.55L8.76315 24.4604L8.69594 24.2437L8.66559 24.15L8.62656 24.0583L8.5355 23.85L8.49864 23.7667L8.45528 23.6833L8.34687 23.4833L8.30134 23.4L8.24714 23.3167L8.12139 23.1292L8.06502 23.0458L7.99997 22.9667L7.85471 22.7896L7.79617 22.7187L7.73112 22.6521L7.57068 22.4875L7.49914 22.4167L7.42325 22.35L7.24763 22.2042L7.17392 22.1417L7.09587 22.0854L6.90724 21.9521L6.82268 21.8937L6.73379 21.8437L6.53215 21.7292L5.27031 23.7771L6.51264 21.7208L6.27848 21.5896L6.11588 21.4854L5.96194 21.3687L5.81451 21.2437L5.67792 21.1083L5.54783 20.9646L5.43292 20.8146L5.32451 20.6542L5.22912 20.4875L5.14673 20.3167L5.07518 20.1375L5.01447 19.9542L4.96894 19.7687L4.93642 19.5812L4.91474 19.3917L4.90823 19.2L4.91474 19.0083L4.93642 18.8167L4.96894 18.6292L5.01447 18.4437L5.07518 18.2604L5.14673 18.0833L5.22912 17.9125L5.32451 17.7458L5.43292 17.5854L5.55 17.4333L5.67792 17.2896L5.81451 17.1562L5.96194 17.0292L6.11371 16.9146L6.27848 16.8104L6.51264 16.6792L5.27031 14.6208L6.53215 16.6688L6.73379 16.5542L6.82268 16.5042L6.90724 16.4458L7.09587 16.3146L7.17392 16.2583L7.24763 16.1958L7.42108 16.05L7.49914 15.9833L7.57068 15.9104L7.73112 15.7479L7.79617 15.6813L7.85471 15.6083L7.99997 15.4333L8.06502 15.3542L8.12139 15.2708L8.24714 15.0813L8.30134 15L8.34687 14.9167L8.45528 14.7146L8.49864 14.6333L8.5355 14.55L8.62656 14.3417L8.66559 14.2479L8.69594 14.1542L8.76315 13.9396L8.79134 13.8479L8.81302 13.7562L8.86072 13.5354L8.88023 13.4437L8.89107 13.35L8.91925 13.1271L8.9301 13.0312L8.93226 12.9354L8.93877 12.7083V12.6167L8.93443 12.5229L8.91709 12.2979L8.91058 12.2L8.89541 12.1042L8.85855 11.8833L8.8412 11.7896L8.81952 11.6958L8.75881 11.4792L6.62105 12.0042L8.75231 11.4562L8.68076 11.2021L8.64174 11.0146L8.61572 10.8271L8.60488 10.6333V10.4417L8.62005 10.2521L8.64824 10.0646L8.68943 9.87708L8.74364 9.68958L8.80868 9.51042L8.88673 9.3375L8.97996 9.16875L9.08186 9.00417L9.19461 8.85208L9.31819 8.70625L9.45261 8.56458L9.59571 8.43542L9.74748 8.31667L9.90358 8.20833L10.0705 8.10833L10.244 8.02083L10.4174 7.94583L10.6017 7.88333L10.7903 7.83125L10.979 7.79167L11.1698 7.76667L11.3627 7.75208H11.5579L11.753 7.7625L11.9416 7.7875L12.1302 7.82292L12.3904 7.89167L12.9238 6.01667L12.4143 7.89792L12.6376 7.95417L12.7351 7.97917L12.8349 7.99375L13.0647 8.03125L13.1666 8.04583L13.2685 8.05417L13.5005 8.06875L13.6002 8.075L13.6978 8.07292L13.9298 8.06667H14.0339L14.1336 8.05417L14.3656 8.02708L14.4631 8.01667L14.5629 7.99583L14.7884 7.95L14.8859 7.92917L14.9813 7.90208L15.2025 7.83542L15.3022 7.80417L15.3998 7.76667L15.6144 7.67917L15.7033 7.64375L15.79 7.6L15.996 7.49583L16.0827 7.45L16.1694 7.39583L16.3646 7.27292L16.4513 7.21875L16.5337 7.15625L16.7136 7.01667L16.7895 6.95833L16.8589 6.89583L17.0259 6.73958L17.1017 6.67083L17.1668 6.59583L17.3207 6.425L17.3858 6.35417L17.44 6.27917L17.5766 6.09583L17.6373 6.01667L17.6893 5.93125L17.8064 5.73542L15.7987 4.6125L17.8194 5.72083L17.956 5.49167L18.0644 5.33333L18.1815 5.18333L18.3116 5.03958L18.4525 4.90625L18.5999 4.78333L18.7538 4.67083L18.9186 4.56667L19.0877 4.475L19.2612 4.39583L19.4433 4.32708L19.6298 4.27083L19.8184 4.22708L20.007 4.19375L20.2022 4.175L20.3929 4.16875L20.5881 4.175L20.7832 4.19583L20.9697 4.22708L21.1583 4.26875L21.3448 4.32708L21.5247 4.39583L21.6982 4.475L21.8694 4.56667L22.032 4.67083L22.1882 4.78333L22.3356 4.90833L22.4743 5.03958L22.6044 5.18333L22.7237 5.33333L22.8321 5.49167L22.9687 5.72083L24.6706 4.7875L22.9752 5.73542L23.0923 5.93125L23.1443 6.01458L23.205 6.09792L23.3394 6.27917L23.398 6.35417L23.4608 6.425L23.6126 6.59583L23.6798 6.67083L23.7557 6.73958L23.9226 6.89583L23.992 6.95833L24.0657 7.01667L24.2479 7.15625L24.3303 7.21875L24.417 7.27292L24.6121 7.39792L24.6988 7.45L24.7856 7.49583L24.9915 7.6L25.0783 7.64167L25.1671 7.67917L25.384 7.76667L25.4772 7.80417L25.5769 7.83542L25.8002 7.90208L25.8956 7.92917L25.991 7.95L26.2187 7.99583L26.3163 8.01667L26.416 8.02708L26.648 8.05417L26.7477 8.06458L26.8496 8.06667L27.0838 8.07292H27.1813L27.2811 8.06875L27.5131 8.05417L27.615 8.04583L27.7169 8.03125L27.9467 7.99375L28.0442 7.97917L28.1418 7.95417L28.3673 7.89792L27.7602 5.66042L28.3955 7.89167L28.6557 7.82292L28.8443 7.7875L29.0351 7.7625L29.2302 7.75208H29.4232L29.6161 7.76667L29.8069 7.79167L29.9956 7.83125L30.1842 7.88333L30.3663 7.94583L30.5419 8.02083L30.7154 8.10833L30.8823 8.20833L31.0406 8.31667L31.1924 8.43542L31.3333 8.56458L31.4677 8.70417L31.5913 8.85L31.704 9.00417L31.8059 9.16875L31.8992 9.3375L31.9772 9.51042L32.0423 9.69167L32.0986 9.87708L32.1377 10.0646L32.1658 10.2521L32.181 10.4417V10.6333L32.1702 10.825L32.1442 11.0146L32.1051 11.2021L32.0336 11.4562L34.1258 11.9958L32.0292 11.4792L31.9707 11.6958L31.9447 11.7896L31.9295 11.8833L31.8927 12.1042L31.8775 12.2L31.8688 12.2979L31.8536 12.5229L31.8471 12.6167L31.8493 12.7083L31.8558 12.9333V13.0312L31.8688 13.1271L31.897 13.35L31.9078 13.4437L31.9295 13.5354L31.975 13.7562L31.9967 13.8479L32.0249 13.9396L32.0921 14.1542L32.1225 14.2479L32.1615 14.3396L32.2504 14.5479L32.2873 14.6333L32.3306 14.7167L32.439 14.9146L32.4867 15L32.5409 15.0813L32.6667 15.2688L32.723 15.3521L32.7881 15.4333L32.9334 15.6083L32.9919 15.6813L33.0569 15.7479L33.2174 15.9104L33.2868 15.9833L33.3648 16.0479L33.5404 16.1958L33.6141 16.2583L33.6922 16.3146L33.8808 16.4458L33.9654 16.5042L34.0543 16.5542L34.2559 16.6688L35.1839 15.1604L34.2689 16.6792L34.5031 16.8104L34.6657 16.9146L34.8174 17.0292L34.967 17.1542L35.1036 17.2896L35.2316 17.4333L35.3486 17.5854L35.457 17.7458L35.5524 17.9125L35.6348 18.0833L35.7064 18.2604L35.7671 18.4437L35.8126 18.6312L35.8451 18.8167L35.8668 19.0083L35.8712 19.2L35.8647 19.3917L35.8451 19.5833L35.8126 19.7708L35.7671 19.9542L35.7064 20.1375L35.6348 20.3167L35.5524 20.4875L35.457 20.6542L35.3486 20.8146L35.2316 20.9646L35.1036 21.1104L34.967 21.2437L34.8196 21.3687L34.6657 21.4854L34.5031 21.5896L34.2689 21.7208L35.1839 23.2375L34.2559 21.7292L34.0543 21.8437L33.9654 21.8937L33.8808 21.9521L33.6922 22.0854L33.6141 22.1396L33.5404 22.2021L33.367 22.35L33.2868 22.4167L33.2174 22.4875L33.0569 22.6521L32.9919 22.7187L32.9334 22.7896L32.7881 22.9667L32.723 23.0458L32.6667 23.1292L32.5409 23.3167L32.4867 23.4L32.4412 23.4833L32.3328 23.6833L32.2894 23.7667L32.2526 23.85L32.1615 24.0583L32.1225 24.15L32.0921 24.2437L32.0249 24.4604L31.9967 24.55L31.975 24.6417L31.9273 24.8625L31.9057 24.9542L31.897 25.0479L31.8688 25.2729L31.858 25.3687L31.8558 25.4646L31.8493 25.6896V25.7833L31.8536 25.8771L31.871 26.1021L31.8775 26.1979L31.8927 26.2937L31.9295 26.5167L31.9447 26.6104L31.9707 26.7021L32.0292 26.9208L34.1323 26.4021L32.0336 26.9437L32.1051 27.1979L32.1442 27.3854L32.1702 27.5729L32.181 27.7646V27.9563L32.1658 28.1479L32.1377 28.3354L32.0986 28.5229L32.0423 28.7083L31.9772 28.8875L31.8992 29.0604L31.8059 29.2312L31.704 29.3937L31.5913 29.5479L31.4677 29.6937L31.3333 29.8333L31.1902 29.9646L31.0384 30.0833L30.8823 30.1917L30.7154 30.2896L30.5419 30.3771L30.3685 30.4521L30.1842 30.5146L29.9956 30.5688L29.8069 30.6062L29.6161 30.6333L29.4232 30.6458H29.228L29.0351 30.6354L28.8443 30.6125L28.6557 30.575L28.3955 30.5062L27.7602 32.7375L28.3673 30.5L28.1418 30.4438L28.0442 30.4208L27.9467 30.4042L27.7169 30.3687L27.615 30.3521L27.5131 30.3458L27.2811 30.3312L27.1813 30.325H27.0838L26.8518 30.3312L26.7477 30.3333L26.648 30.3458L26.416 30.3708L26.3163 30.3833L26.2187 30.4042L25.991 30.45L25.8956 30.4708L25.8002 30.4979L25.5769 30.5646L25.4772 30.5937L25.3818 30.6333L25.1671 30.7188L25.0783 30.7563L24.9915 30.7979L24.7856 30.9021L24.6988 30.95L24.6121 31.0021L24.417 31.125L24.3303 31.1792L24.2479 31.2417L24.0679 31.3833L23.992 31.4396L23.9226 31.5021L23.7557 31.6604L23.6798 31.7271L23.6148 31.8021L23.4608 31.9729L23.3958 32.0438L23.3394 32.1208L23.205 32.3021L23.1443 32.3833L23.0923 32.4667L22.9752 32.6625L24.6706 33.6104L22.9687 32.6792L22.8321 32.9083L22.7237 33.0667L22.6066 33.2167L22.4765 33.3583L22.3356 33.4917L22.1882 33.6167L22.032 33.7292L21.8694 33.8333L21.7003 33.9229L21.5269 34.0042L21.3448 34.0708L21.1583 34.1292L20.9697 34.1708L20.781 34.2042L20.5859 34.2229L20.3951 34.2292L20.2 34.2229L20.0049 34.2021L19.8184 34.1729L19.6298 34.1292L19.4433 34.0708L19.2634 34.0042L19.0899 33.9229L18.9186 33.8312L18.756 33.7271L18.5999 33.6146L18.4525 33.4917L18.3137 33.3583L18.1836 33.2146L18.0644 33.0667L17.956 32.9083L17.8194 32.6792L15.7987 33.7854ZM4.56567 12.5354L4.47244 12.2167L4.45293 12.15L4.43992 12.0812L4.37271 11.7562L4.35753 11.6875L4.34886 11.6146L4.3055 11.2875L4.29465 11.2188L4.29032 11.15L4.26864 10.8167L4.2643 10.75V10.6812L4.26647 10.3479V10.2792L4.27731 10.2083L4.30333 9.87708L4.30766 9.80833L4.3185 9.73958L4.3662 9.4125L4.37704 9.33958L4.39222 9.27083L4.46377 8.94583L4.47894 8.87917L4.49846 8.8125L4.59169 8.49375L4.6112 8.42708L4.63288 8.3625L4.74996 8.05L4.77381 7.98333L4.80416 7.91875L4.94075 7.61458L4.97111 7.54792L5.0058 7.48542L5.16407 7.19167L5.19659 7.13125L5.23345 7.07292L5.40907 6.78958L5.44809 6.72917L5.49146 6.67083L5.68659 6.4L5.72995 6.34167L5.77765 6.28542L5.99446 6.02917L6.03999 5.975L6.08986 5.92292L6.32401 5.68125L6.37171 5.63125L6.42592 5.58333L6.67525 5.35417L6.72729 5.30833L6.78366 5.2625L7.04817 5.05417L7.10671 5.00833L7.16741 4.96667L7.4471 4.775L7.50781 4.73333L7.57285 4.69583L7.86338 4.52292L7.92409 4.4875L7.98696 4.45625L8.2905 4.30208L8.35554 4.26875L8.42492 4.23958L8.7393 4.10625L8.80651 4.07708L8.87806 4.05208L9.19894 3.94167L9.26832 3.91667L9.3377 3.89583L9.66509 3.80625L9.73664 3.7875L9.80818 3.77292L10.1421 3.70417L10.2158 3.6875L10.2917 3.67708L10.6299 3.63125L10.7036 3.62083L10.7752 3.61667L11.1177 3.59167L11.1914 3.58542H11.6814L11.7552 3.5875L12.0956 3.60833L12.1693 3.6125L12.2408 3.62292L12.5812 3.66458L12.6549 3.67292L12.7308 3.6875L13.0647 3.75417L13.1362 3.76667L13.2056 3.7875L13.5374 3.87083L13.6393 3.89792L13.6674 3.90208L13.6978 3.90417H13.7281L13.7585 3.9L13.791 3.89375L13.8192 3.88542L13.8474 3.875L13.8799 3.85833L13.9016 3.84375L13.9276 3.82292L13.9536 3.80208L13.9753 3.77708L13.9948 3.75L14.0599 3.64167L14.2246 3.37083L14.2593 3.31042L14.2962 3.25625L14.487 2.97917L14.5303 2.91667L14.5737 2.86042L14.784 2.59792L14.8274 2.54375L14.8751 2.49167L15.1006 2.24167L15.1483 2.18958L15.2025 2.13958L15.4453 1.90625L15.4973 1.85625L15.5515 1.81042L15.8117 1.59375L15.8659 1.54792L15.9266 1.50417L16.1998 1.30417L16.2562 1.2625L16.3169 1.225L16.6031 1.04375L16.6681 1.00417L16.731 0.970833L17.0302 0.808333L17.0952 0.775L17.1603 0.74375L17.4703 0.602083L17.5354 0.570833L17.6069 0.54375L17.9256 0.425L17.995 0.397917L18.0644 0.377083L18.3896 0.277083L18.459 0.25625L18.5305 0.239583L18.8623 0.1625L18.936 0.14375L19.0097 0.133333L19.3457 0.0770832L19.4195 0.0645831L19.4953 0.0562499L19.8357 0.0229165L19.9073 0.0166665L19.9788 0.0145833L20.3192 0.00208318L20.3951 0L20.4732 0.00208318L20.8136 0.0145833L20.8851 0.0166665L20.9567 0.0229165L21.2971 0.0562499L21.3729 0.0645831L21.4467 0.0770832L21.7827 0.133333L21.8564 0.14375L21.9301 0.1625L22.2619 0.239583L22.3334 0.25625L22.4028 0.277083L22.728 0.377083L22.7974 0.397917L22.8668 0.425L23.1855 0.54375L23.2549 0.570833L23.3221 0.602083L23.6321 0.74375L23.6972 0.775L23.7622 0.808333L24.0614 0.970833L24.1264 1.00417L24.1872 1.04583L24.4755 1.225L24.5362 1.2625L24.5926 1.30417L24.8658 1.50417L24.9265 1.54583L24.9829 1.59375L25.243 1.81042L25.2951 1.85625L25.3471 1.90625L25.5899 2.13958L25.642 2.18958L25.6918 2.24167L25.9173 2.49167L25.965 2.54375L26.0084 2.59792L26.2187 2.86042L26.262 2.91875L26.3054 2.98125L26.4962 3.25625L26.5331 3.31042L26.5678 3.37083L26.739 3.65625L26.7369 3.65833L26.7911 3.75L26.8127 3.77708L26.8323 3.8L26.8583 3.82292L26.8843 3.84375L26.906 3.85833L26.9385 3.875L26.9667 3.88542L26.9949 3.89375L27.0274 3.9L27.0577 3.90417H27.1185L27.1466 3.89792L27.2767 3.86667L27.5846 3.78542L27.654 3.76667L27.7255 3.75417L28.0594 3.6875L28.1353 3.67292L28.2112 3.66458L28.5494 3.62292L28.621 3.6125L28.6947 3.60833L29.0351 3.5875L29.1088 3.58333H29.1825L29.5229 3.58542H29.5988L29.6725 3.59167L30.0151 3.61667L30.0866 3.62083L30.1603 3.63125L30.4986 3.67708L30.5744 3.6875L30.6482 3.70417L30.982 3.77292L31.0536 3.7875L31.123 3.80833L31.4525 3.89792L31.5241 3.91875L31.5913 3.93958L31.9122 4.05208L31.9837 4.07708L32.0531 4.10625L32.3653 4.23958L32.4325 4.26875L32.4997 4.30208L32.8033 4.45625L32.8683 4.4875L32.9268 4.52292L33.2195 4.69583L33.2824 4.73333L33.3431 4.775L33.6228 4.96667L33.6835 5.00833L33.7421 5.05417L34.0066 5.2625L34.0629 5.30833L34.115 5.35625L34.3643 5.58333L34.4185 5.63125L34.4684 5.68125L34.7004 5.92292L34.7502 5.975L34.7958 6.02917L35.0126 6.28542L35.0581 6.34167L35.1015 6.4L35.2988 6.67083L35.3421 6.72917L35.3812 6.79167L35.5589 7.07292L35.5936 7.13125L35.6262 7.19167L35.7844 7.48333L35.8191 7.54792L35.8495 7.61458L35.9861 7.91875L36.0164 7.98125L36.0381 8.05L36.1552 8.3625L36.179 8.425L36.2007 8.49375L36.2918 8.8125L36.3135 8.87917L36.3265 8.94583L36.398 9.27083L36.4132 9.33958L36.424 9.4125L36.4717 9.73958L36.4826 9.80833L36.4869 9.87708L36.5129 10.2083L36.5173 10.2792V10.35L36.5194 10.6812V10.75L36.5173 10.8187L36.4956 11.15L36.4912 11.2188L36.4826 11.2875L36.4392 11.6146L36.4284 11.6875L36.4132 11.7562L36.3481 12.0812L36.333 12.15L36.3135 12.2167L36.2267 12.5271L36.1964 12.6396L36.192 12.6708L36.1899 12.7062V12.7417L36.1942 12.775L36.2029 12.8125L36.2115 12.8417L36.2267 12.875L36.2441 12.9062L36.2593 12.9312L36.2809 12.9583L36.3048 12.9812L36.3286 13.0021L36.3546 13.0208L36.4652 13.0833L36.7427 13.2396L36.8034 13.2729L36.862 13.3104L37.146 13.4937L37.2111 13.5354L37.2718 13.5812L37.5428 13.7833L37.5991 13.825L37.6512 13.8729L37.9092 14.0917L37.9634 14.1396L38.0154 14.1896L38.2539 14.425L38.306 14.475L38.3537 14.5292L38.577 14.7792L38.6247 14.8333L38.668 14.8917L38.874 15.1562L38.9174 15.2104L38.9564 15.2688L39.1428 15.5479L39.1819 15.6062L39.2187 15.6687L39.3857 15.9583L39.4204 16.0208L39.4507 16.0833L39.596 16.3833L39.6285 16.4458L39.6545 16.5146L39.7803 16.8229L39.8063 16.8875L39.828 16.9542L39.9299 17.2687L39.9516 17.3354L39.9689 17.4042L40.0491 17.725L40.0665 17.7938L40.0773 17.8646L40.1358 18.1896L40.1467 18.2604L40.1554 18.3312L40.1901 18.6625L40.1966 18.7292L40.1987 18.7958L40.2096 19.1271L40.2139 19.2L40.2096 19.2729L40.1987 19.6042L40.1966 19.6708L40.1901 19.7375L40.1554 20.0667L40.1467 20.1375L40.1358 20.2083L40.0773 20.5354L40.0643 20.6042L40.0491 20.6729L39.9689 20.9958L39.9516 21.0625L39.9299 21.1292L39.8258 21.4458L39.8041 21.5104L39.7803 21.575L39.6545 21.8854L39.6285 21.9521L39.596 22.0146L39.4507 22.3167L39.4204 22.3792L39.3857 22.4417L39.2187 22.7292L39.1819 22.7917L39.1428 22.8521L38.9564 23.1292L38.9174 23.1875L38.874 23.2437L38.6702 23.5083L38.6268 23.5646L38.577 23.6187L38.3537 23.8687L38.306 23.9229L38.2561 23.9729L38.0154 24.2083L37.9634 24.2604L37.9092 24.3083L37.6512 24.5271L37.5991 24.5729L37.5428 24.6146L37.2718 24.8187L37.2111 24.8625L37.146 24.9042L36.8642 25.0875L36.8034 25.125L36.7427 25.1583L36.4652 25.3125V25.3146L36.3568 25.3771L36.3286 25.3979L36.3069 25.4167L36.2809 25.4417L36.2593 25.4667L36.2441 25.4917L36.2267 25.525L36.2115 25.5562L36.2029 25.5875L36.1942 25.6229L36.1899 25.6562V25.6917L36.192 25.7271L36.1985 25.7604L36.2267 25.8729L36.3135 26.1833L36.333 26.25L36.346 26.3167L36.4132 26.6417L36.4284 26.7125L36.437 26.7833L36.4804 27.1125L36.4912 27.1813L36.4956 27.25L36.5173 27.5812L36.5216 27.65V27.7188L36.5194 28.05V28.1208L36.5129 28.1917L36.4869 28.5208L36.4826 28.5896L36.4717 28.6583L36.424 28.9875L36.4132 29.0583L36.398 29.1292L36.3265 29.4521L36.3113 29.5208L36.2918 29.5875L36.1985 29.9062L36.179 29.9729L36.1573 30.0354L36.0403 30.3479L36.0143 30.4167L35.9861 30.4792L35.8495 30.7833L35.8191 30.85L35.7844 30.9125L35.6262 31.2083L35.5936 31.2688L35.5589 31.325L35.3812 31.6083L35.3421 31.6708L35.2988 31.7271L35.1036 31.9979L35.0603 32.0562L35.0126 32.1125L34.7958 32.3688L34.7502 32.4229L34.7004 32.475L34.4684 32.7167L34.4185 32.7687L34.3643 32.8167L34.115 33.0417L34.0629 33.0917L34.0066 33.1354L33.7421 33.3437L33.6835 33.3917L33.6228 33.4333L33.3431 33.625L33.2824 33.6667L33.2174 33.7042L32.9268 33.875L32.8661 33.9104L32.8033 33.9437L32.4997 34.0958L32.4347 34.1312L32.3653 34.1604L32.0509 34.2938L31.9837 34.3229L31.9122 34.3458L31.5913 34.4583L31.5241 34.4813L31.4525 34.5021L31.1251 34.5917L31.0536 34.6125L30.982 34.625L30.6482 34.6958L30.5744 34.7104L30.4986 34.7208L30.1603 34.7667L30.0866 34.7771L30.0151 34.7833L29.6725 34.8063L29.5988 34.8125H29.5229L29.1825 34.8146H29.1088L29.0351 34.8104L28.6947 34.7896L28.621 34.7854L28.5494 34.7771L28.2112 34.7354L28.1353 34.725L28.0594 34.7104L27.7255 34.6458L27.654 34.6312L27.5846 34.6125L27.2746 34.5312L27.1466 34.5L27.1185 34.4958H27.0577L27.0274 34.4979L26.9949 34.5042L26.9667 34.5125L26.9385 34.525L26.906 34.5417L26.8843 34.5562L26.8583 34.5771L26.8323 34.5979L26.8106 34.6229L26.7911 34.6479L26.7369 34.7396L26.5678 35.0292L26.5331 35.0875L26.494 35.1437L26.3054 35.4187L26.262 35.4813L26.2187 35.5396L26.0084 35.8021L25.965 35.8563L25.9173 35.9083L25.6918 36.1562L25.642 36.2104L25.5899 36.2604L25.3471 36.4917L25.2951 36.5417L25.2409 36.5875L24.9807 36.8042L24.9265 36.8521L24.8658 36.8937L24.5926 37.0938L24.5362 37.1354L24.4755 37.1729L24.1872 37.3542L24.1264 37.3937L24.0614 37.4292L23.7622 37.5896L23.6972 37.625L23.6321 37.6562L23.3221 37.7958L23.2549 37.8271L23.1855 37.8542L22.8668 37.975L22.7974 38L22.728 38.0208L22.4028 38.1208L22.3334 38.1417L22.2619 38.1583L21.9301 38.2375L21.8564 38.2542L21.7827 38.2667L21.4467 38.3229L21.3729 38.3354L21.2971 38.3417L20.9567 38.375L20.8851 38.3812L20.8136 38.3854L20.4732 38.3958L20.3951 38.3979H20.3192L19.9767 38.3854L19.9073 38.3812L19.8357 38.375L19.4953 38.3417L19.4195 38.3354L19.3457 38.3229L19.0097 38.2667L18.936 38.2542L18.8623 38.2375L18.5305 38.1583L18.459 38.1417L18.3896 38.1208L18.0644 38.0208L17.995 38L17.9256 37.975L17.6069 37.8542L17.5375 37.8271L17.4703 37.7958L17.1603 37.6562L17.0952 37.625L17.0302 37.5896L16.731 37.4292L16.6659 37.3937L16.6031 37.3542L16.3169 37.1729L16.2562 37.1354L16.1998 37.0938L15.9266 36.8958L15.8659 36.8521L15.8095 36.8042L15.5494 36.5875L15.4973 36.5417L15.4453 36.4937L15.2025 36.2604L15.1483 36.2104L15.1006 36.1562L14.8751 35.9062L14.8274 35.8563L14.784 35.8021L14.5737 35.5396L14.5282 35.4813L14.4848 35.4187L14.2962 35.1437L14.2593 35.0875L14.2246 35.0292L14.062 34.7583L13.9948 34.6479L13.9731 34.6229L13.9515 34.5979L13.9298 34.5771L13.9016 34.5562L13.8799 34.5396L13.8474 34.525L13.8192 34.5125L13.791 34.5042L13.7585 34.4979L13.7281 34.4937H13.6978L13.6674 34.4958L13.6393 34.5L13.5374 34.5271L13.2056 34.6125L13.1362 34.6333L13.0647 34.6458L12.7308 34.7104L12.6549 34.725L12.5812 34.7354L12.2408 34.7771L12.1693 34.7854L12.0956 34.7896L11.7552 34.8104L11.6814 34.8146H11.1914L11.1177 34.8083L10.7752 34.7833L10.7036 34.7771L10.6299 34.7667L10.2917 34.7208L10.2158 34.7104L10.1421 34.6958L9.80818 34.625L9.73664 34.6104L9.66509 34.5917L9.3377 34.5021L9.26832 34.4813L9.19894 34.4583L8.87806 34.3458L8.80651 34.3208L8.7393 34.2917L8.42492 34.1604L8.35554 34.1312L8.2905 34.0958L7.98696 33.9437L7.92192 33.9125L7.86338 33.875L7.57068 33.7042L7.50781 33.6667L7.4471 33.625L7.16741 33.4333L7.10671 33.3917L7.04817 33.3458L6.78366 33.1375L6.72729 33.0917L6.67525 33.0417L6.42592 32.8167L6.37171 32.7687L6.32401 32.7167L6.08986 32.475L6.03999 32.4229L5.99446 32.3688L5.77765 32.1125L5.73212 32.0562L5.68876 31.9979L5.49146 31.7271L5.44809 31.6687L5.40907 31.6083L5.23345 31.325L5.19659 31.2688L5.16407 31.2062L5.0058 30.9146L4.97111 30.85L4.94075 30.7833L4.80416 30.4813L4.77381 30.4167L4.75213 30.3479L4.63505 30.0354L4.6112 29.9729L4.58952 29.9062L4.49846 29.5875L4.47678 29.5208L4.46377 29.4521L4.39222 29.1292L4.37704 29.0583L4.3662 28.9875L4.3185 28.6583L4.30766 28.5896L4.30333 28.5208L4.27731 28.1896L4.27297 28.1208V28.05L4.2708 27.7167V27.65L4.27297 27.5792L4.29465 27.25L4.29899 27.1813L4.30766 27.1125L4.35103 26.7833L4.36187 26.7125L4.37704 26.6417L4.44209 26.3167L4.45726 26.25L4.47678 26.1833L4.5635 25.8625H4.56784L4.59385 25.7583L4.60036 25.7271L4.60253 25.6917V25.6562L4.59819 25.6229L4.58952 25.5875L4.58085 25.5562L4.56567 25.525L4.54832 25.4917L4.53315 25.4667L4.51147 25.4417L4.48762 25.4167L4.4616 25.3958L4.43775 25.3792L4.34018 25.3229L4.04315 25.1583L3.98245 25.125L3.92391 25.0875L3.63771 24.9042L3.57484 24.8625L3.51413 24.8187L3.24312 24.6146L3.18674 24.5729L3.13254 24.5271L2.8767 24.3083L2.8225 24.2604L2.77047 24.2083L2.5298 23.9729L2.47994 23.9229L2.43224 23.8708L2.20892 23.6208L2.15906 23.5646L2.11569 23.5083L1.90972 23.2437L1.86636 23.1875L1.8295 23.1292L1.64304 22.8521L1.60185 22.7917L1.56716 22.7292L1.40021 22.4396L1.36552 22.3792L1.33517 22.3167L1.18774 22.0167L1.15738 21.9521L1.1292 21.8833L1.00562 21.575L0.979599 21.5125L0.957918 21.4458L0.856016 21.1292L0.834335 21.0625L0.81699 20.9958L0.736769 20.6729L0.719425 20.6042L0.708584 20.5354L0.650045 20.2083L0.637036 20.1375L0.630532 20.0667L0.595842 19.7375L0.589337 19.6708L0.587169 19.6021L0.569824 19.2708V19.2L0.571992 19.1271L0.585001 18.7958V18.7292L0.593673 18.6625L0.628363 18.3312L0.634868 18.2604L0.647877 18.1896L0.706416 17.8646L0.717257 17.7938L0.734601 17.725L0.814822 17.4042L0.832167 17.3354L0.853848 17.2687L0.95575 16.9542L0.977431 16.8875L1.00345 16.825L1.12703 16.5125L1.15522 16.4479L1.18557 16.3833L1.333 16.0833L1.36336 16.0208L1.39805 15.9583L1.56499 15.6687L1.59968 15.6062L1.64088 15.5479L1.82733 15.2688L1.86636 15.2104L1.90972 15.1562L2.11353 14.8917L2.15689 14.8333L2.20676 14.7792L2.43007 14.5292L2.47777 14.475L2.52764 14.425L2.76613 14.1896L2.82033 14.1396L2.87454 14.0917L3.13037 13.8729L3.18458 13.8271L3.24095 13.7854L3.51196 13.5812L3.57267 13.5354L3.63771 13.4937L3.91957 13.3104L3.98028 13.2729L4.04098 13.2396L4.33802 13.0729V13.075L4.43558 13.0208L4.45943 13.0021L4.48545 12.9812L4.50713 12.9583L4.52881 12.9312L4.54616 12.9062L4.5635 12.875L4.57868 12.8417L4.58735 12.8125L4.59602 12.775L4.60036 12.7417V12.7083L4.59819 12.6729L4.59169 12.6417L4.56567 12.5354Z" fill="#FFC933"/>
<path d="M25.5032 18.7493C25.5032 20.1307 24.9321 21.4554 23.9156 22.4322C22.8991 23.4089 21.5205 23.9577 20.0829 23.9577C18.6453 23.9577 17.2667 23.4089 16.2502 22.4322C15.2337 21.4554 14.6626 20.1307 14.6626 18.7493C14.6626 17.368 15.2337 16.0433 16.2502 15.0665C17.2667 14.0897 18.6453 13.541 20.0829 13.541C21.5205 13.541 22.8991 14.0897 23.9156 15.0665C24.9321 16.0433 25.5032 17.368 25.5032 18.7493Z" stroke="#FFC933" stroke-width="2"/>
</svg>
